PathFileType	4	(X/Y/Z)	s01c0403.trc
DataRate	CameraRate	NumFrames	NumMarkers	Units	OrigDataRate	OrigDataStartFrame	OrigNumFrames
200	200	4	47	mm	200	250	2000
Frame#	Time	racr			lacr			c7			jug			rlel			rdr			llel			ldr			lic			ric			lasi			rasi			rpsi			lpsi			rgt			lgt			rth1			rth2			rth3			rth4			rlfc			rsh1			rsh2			rsh3			rsh4			rlmal			rmmal			rcal			rtoe			rmt5			lth1			lth2			lth4			lth3			llfc			lsh1			lsh2			lsh3			lsh4			llmal			lmmal			lcal			ltoe			lmt5			SBIKE			LBIKE			RBIKE			
		X1	Y1	Z1	X2	Y2	Z2	X3	Y3	Z3	X4	Y4	Z4	X5	Y5	Z5	X6	Y6	Z6	X7	Y7	Z7	X8	Y8	Z8	X9	Y9	Z9	X10	Y10	Z10	X11	Y11	Z11	X12	Y12	Z12	X13	Y13	Z13	X14	Y14	Z14	X15	Y15	Z15	X16	Y16	Z16	X17	Y17	Z17	X18	Y18	Z18	X19	Y19	Z19	X20	Y20	Z20	X21	Y21	Z21	X22	Y22	Z22	X23	Y23	Z23	X24	Y24	Z24	X25	Y25	Z25	X26	Y26	Z26	X27	Y27	Z27	X28	Y28	Z28	X29	Y29	Z29	X30	Y30	Z30	X31	Y31	Z31	X32	Y32	Z32	X33	Y33	Z33	X34	Y34	Z34	X35	Y35	Z35	X36	Y36	Z36	X37	Y37	Z37	X38	Y38	Z38	X39	Y39	Z39	X40	Y40	Z40	X41	Y41	Z41	X42	Y42	Z42	X43	Y43	Z43	X44	Y44	Z44	X45	Y45	Z45	X46	Y46	Z46	X47	Y47	Z47	
250	1.2500	452.755459	1364.463961	-131.001501	448.608434	1352.431172	-451.377131	403.783372	1421.759632	-288.124047	0.000000	0.000000	-0.000000	545.742047	1105.652787	-42.176213	707.093742	895.721117	-82.517497	523.250673	1085.389344	-534.872469	699.136959	900.687091	-463.782140	100.915495	1156.208932	-450.975864	76.395239	1141.771222	-117.675742	81.948450	1103.556818	-420.342013	102.404045	1091.938032	-141.520921	-58.589569	1170.623177	-216.171127	-64.218346	1174.130077	-321.395105	19.526268	1016.351612	-84.459114	36.092748	1029.271050	-472.286806	99.746620	903.655138	-70.840778	156.845289	842.315026	-75.103881	212.206088	772.215666	-90.631773	198.683216	878.030657	-87.937455	246.600738	670.300739	-113.947889	167.189133	583.336305	-79.366797	126.435895	508.985847	-79.366231	75.793679	435.530614	-89.037357	168.492058	483.310153	-114.620278	3.870898	328.023033	-104.602305	50.276211	330.572279	-181.875092	-48.096269	305.271657	-159.405745	207.103008	214.437269	-143.938673	98.587696	214.644087	-74.945241	141.563318	963.839442	-468.182518	230.458969	958.428266	-469.988335	235.719353	1012.869203	-461.663222	313.718242	944.506462	-451.424756	419.344704	887.679034	-428.579628	343.730686	802.118278	-453.347464	312.256958	721.915585	-446.563271	279.633957	643.689194	-432.128271	365.113994	703.681013	-419.263726	231.224833	526.213621	-414.982340	260.821305	535.454118	-329.557996	179.463739	489.099716	-371.678447	455.361754	467.446049	-387.479630	348.874535	447.221417	-449.365843	-232.177870	889.729159	-257.605432	-24.176866	80.429950	-458.494775	-24.450798	80.212123	-58.149144	
251	1.2550	452.698841	1364.563588	-131.050773	448.458724	1352.404724	-451.360022	403.662446	1421.854746	-288.223987	0.000000	0.000000	-0.000000	545.849393	1105.802600	-42.338840	707.123465	895.765134	-82.695201	523.270501	1085.525908	-534.709866	699.240868	900.729812	-464.031670	100.829218	1155.750369	-451.008414	76.368274	1141.801891	-117.826000	81.967063	1103.515134	-420.411981	102.345188	1091.918120	-141.675699	-58.633558	1170.587429	-216.284096	-64.247049	1174.036234	-321.532561	19.489677	1016.396583	-84.511537	36.073706	1029.140892	-472.405071	99.779529	903.765715	-70.861942	156.924651	842.466050	-75.063149	212.377103	772.434155	-90.550520	198.751122	878.232890	-87.909372	246.802347	670.489427	-113.753300	167.245287	583.638661	-79.253117	126.333741	509.354854	-79.313082	75.574352	436.033274	-88.988963	168.377892	483.603054	-114.483604	3.434530	328.713660	-104.581604	49.672013	331.346187	-181.924799	-48.552159	305.898440	-159.388427	206.627622	215.025346	-143.914356	98.084177	215.207829	-74.966955	141.502655	963.613308	-468.290970	230.421259	958.190363	-470.089330	235.742077	1012.609376	-461.791010	313.674287	944.225645	-451.488036	419.292196	887.397886	-428.594551	343.785039	801.687665	-453.412393	312.472445	721.487857	-446.613645	279.942262	643.246960	-432.170188	365.327648	703.370104	-419.250482	231.703755	525.622795	-414.963825	258.418439	534.339138	-328.624265	179.980490	488.561596	-371.653273	455.977120	466.878271	-387.533764	349.375912	446.657826	-449.384223	-232.184523	889.730688	-257.617846	-24.179683	80.425558	-458.487337	-24.448186	80.206942	-58.146083	
252	1.2600	452.626540	1364.665870	-131.115988	448.290153	1352.411035	-451.325575	403.521250	1421.957192	-288.310343	0.000000	0.000000	-0.000000	545.991698	1105.992315	-42.490308	707.167639	895.809073	-82.881094	523.320730	1085.691211	-534.580001	699.347682	900.759862	-464.272176	100.809569	1155.549273	-451.102662	76.344328	1141.833112	-117.956769	82.087869	1103.428129	-420.753705	102.287365	1091.911416	-141.802421	-58.684859	1170.540800	-216.386097	-64.299678	1173.939354	-321.668485	19.430220	1016.439212	-84.591723	36.108728	1028.948523	-472.505781	99.831393	903.868878	-70.892480	157.019414	842.607843	-75.055901	212.537734	772.611919	-90.477186	198.829887	878.411096	-87.866465	247.048580	670.674736	-113.573792	167.271311	583.957825	-79.117817	126.197570	509.744413	-79.242581	75.301926	436.533606	-88.944649	168.249974	483.948258	-114.369837	3.041423	329.269329	-104.552369	49.256294	331.871145	-181.899845	-49.026575	306.571890	-159.424740	206.090060	215.533216	-143.951431	97.593189	215.781107	-74.972856	141.378089	963.391009	-468.355794	230.383035	957.948484	-470.197509	235.318174	1012.102179	-461.637207	313.620107	943.930273	-451.579774	419.243099	887.136462	-428.621195	343.861053	801.308353	-453.448394	312.702273	720.984229	-446.654792	280.275443	642.697812	-432.203664	365.559989	703.064491	-419.270748	232.211513	525.108875	-415.028109	261.890233	534.243489	-329.570455	181.125565	487.970158	-371.028089	456.914699	466.230156	-387.819378	349.907936	446.143300	-449.441677	-232.197370	889.728887	-257.633831	-24.179924	80.437877	-458.497126	-24.449560	80.192757	-58.152641	
253	1.2650	452.544469	1364.720301	-131.168379	448.147321	1352.429928	-451.277349	403.327311	1422.062993	-288.377854	0.000000	0.000000	-0.000000	546.102204	1106.168159	-42.611449	707.190865	895.844126	-83.077164	523.365846	1085.931857	-534.460256	699.439179	900.818351	-464.442912	100.793180	1155.262656	-451.204447	76.290699	1141.854115	-118.083881	82.072135	1103.400539	-420.856118	102.245315	1091.876165	-141.901812	-58.737047	1170.475498	-216.526135	-64.345894	1173.841816	-321.809475	19.369683	1016.457709	-84.687244	36.107487	1028.826248	-472.642172	99.862188	903.954082	-70.918101	157.100185	842.727208	-75.019613	212.690335	772.776839	-90.419393	198.901092	878.566116	-87.854671	247.255913	670.848171	-113.423265	167.341559	584.284790	-79.002863	126.051382	510.154589	-79.183052	75.006254	437.004035	-88.919064	168.071982	484.239968	-114.249249	2.636548	329.943213	-104.568951	48.883994	332.317156	-181.893854	-49.525288	307.161760	-159.370928	205.535522	216.064720	-143.955208	97.061538	216.352479	-74.943383	141.334052	963.202081	-468.492453	230.343689	957.707813	-470.313519	235.620803	1012.047372	-462.154286	313.580702	943.641838	-451.635460	419.202039	886.791416	-428.686556	343.944158	800.894716	-453.506100	312.958684	720.517757	-446.710226	280.626075	642.125144	-432.258529	365.780558	702.730048	-419.325130	232.736910	524.603483	-415.055845	262.508629	533.771104	-329.580332	181.706698	487.508064	-371.078853	457.459519	465.584274	-387.810591	350.416629	445.492414	-449.435956	-232.202079	889.712126	-257.663305	-24.189450	80.415100	-458.491088	-24.460198	80.214006	-58.164524	
